# xmcd CD database file
#
# Track frame offsets:
#	150
#	33627
#	132942
#
# Disc length: 1986 seconds
#
# Revision: 0
# Processed by: cddbd v1.5.2PL0 Copyright (c) Steve Scherf et al.
# Submitted via: CDex 1.51
#
DISCID=2307c003
DTITLE=Harald Juengst - My Green Heartbeat CD01
DYEAR=2008
DGENRE=Hoerbuch
TTITLE0=The Swilly
TTITLE1=The Green-Furred Tiger
TTITLE2=Cats Language
EXTD=YEAR: 2008
EXTT0=
EXTT1=
EXTT2=
PLAYORDER=
